<svg xmlns="http://www.w3.org/2000/svg" id="logo-linkidwordmark" width="75" height="24" viewBox="0 0 75 24">
    <defs>
        <style>
            .cls-2{fill:#1d2e92}
        </style>
    </defs>
    <path id="사각형_3769" fill="none" d="M0 0H75V24H0z"/>
    <g id="Logo_가로__logo-linkidwordmark" transform="translate(3.75 2.01)">
        <g id="그룹_2353" transform="translate(0 0)">
            <path id="사각형_3776" d="M0 0H4.23V18.339H0z" class="cls-2" transform="translate(0 1.765) rotate(-0.304)"/>
            <path id="사각형_3777" d="M0 0H4.231V13.909H0z" class="cls-2" transform="translate(7.321 6.159) rotate(-0.298)"/>
            <path id="패스_4078" d="M373.755 72.075a5.011 5.011 0 0 0-3.88-1.551 5.511 5.511 0 0 0-2.446.545 4.469 4.469 0 0 0-1.724 1.456l-.01-1.831-4.231.022.073 13.8 4.231-.022-.04-7.5a3.03 3.03 0 0 1 .706-2.156 2.812 2.812 0 0 1 3.859-.02 3.031 3.031 0 0 1 .728 2.148l.04 7.5 4.206-.022-.043-8.065a6.126 6.126 0 0 0-1.469-4.304z" class="cls-2" transform="translate(-346.846 -64.494)"/>
            <path id="패스_4079" d="M470.355 49.253l-5.22.028-4.151 5.648-.054-10.136-4.23.022.1 18.339 4.231-.022-.031-5.8 4.237 5.777 5.244-.028-5.825-6.859z" class="cls-2" transform="translate(-425.725 -43.214)"/>
            <path id="사각형_3778" d="M0 0H4.231V13.804H0z" class="cls-2" transform="translate(46.142 6.054) rotate(-0.304)"/>
            <path id="패스_4080" d="M545.09 35.6a2.562 2.562 0 0 0-1.815.665 2.152 2.152 0 0 0-.7 1.649 2.126 2.126 0 0 0 .714 1.617 2.563 2.563 0 0 0 1.822.646 2.53 2.53 0 0 0 1.79-.665 2.122 2.122 0 0 0 .7-1.624 2.15 2.15 0 0 0-.713-1.641 2.531 2.531 0 0 0-1.798-.647z" class="cls-2" transform="translate(-496.852 -35.602)"/>
            <path id="패스_4081" d="M592.861 44.545v5.686a6.855 6.855 0 1 0 0 11.828V63h4.211V44.545zm-3.41 14.67a3.083 3.083 0 1 1 3.078-3.083 3.08 3.08 0 0 1-3.077 3.083z" class="cls-2" transform="translate(-529.976 -43.009)"/>
            <path id="패스_4082" fill="#48d7d7" d="M319.07 35.927a2.551 2.551 0 0 0-1.814.671 2.176 2.176 0 0 0-.7 1.661 2.149 2.149 0 0 0 .714 1.629 2.549 2.549 0 0 0 1.822.65 2.52 2.52 0 0 0 1.79-.67 2.146 2.146 0 0 0 .7-1.637 2.175 2.175 0 0 0-.714-1.654 2.521 2.521 0 0 0-1.798-.65z" transform="translate(-309.654 -35.871)"/>
        </g>
    </g>
</svg>
